<svg xmlns="http://www.w3.org/2000/svg" viewBox="0 0 24 24" width="24" height="24" color="currentColor" fill="none" stroke="currentColor" stroke-width="1.5" stroke-linecap="round" stroke-linejoin="round">
    <path d="M12 7V17"></path>
    <path d="M16 11L16 19"></path>
    <path d="M20 11L20 14"></path>
    <path d="M8 3V21"></path>
    <path d="M4 9V15"></path>
    <path d="M18.5 3.9375V5.5M18.5 5.5V7.0625M18.5 5.5H17.25M18.5 5.5H19.75M21 5.5L19.9156 5.13852C19.4179 4.97263 19.0274 4.58211 18.8615 4.08443L18.5 3L18.1385 4.08443C17.9726 4.58211 17.5821 4.97263 17.0844 5.13852L16 5.5L17.0844 5.86148C17.5821 6.02737 17.9726 6.41789 18.1385 6.91557L18.5 8L18.8615 6.91557C19.0274 6.41789 19.4179 6.02737 19.9156 5.86148L21 5.5Z"></path>
</svg>